<svg id="Layer_1" data-name="Layer 1" xmlns="http://www.w3.org/2000/svg" viewBox="0 0 550.43 479.89"><defs><style>.cls-1{fill:blue;}.cls-2{fill:#c1272d;}</style></defs><path class="cls-1" d="M407.74,18.63H145L13.69,246.13,145,473.64h262.7L537.87,248.23l1.22-2.1Zm-4.85,446.62h-253L23.38,246.13,149.88,27h253L529.4,246.13Z" transform="translate(-1.6 -6.71)"/><line class="cls-1" x1="149.44" y1="23.21" x2="401.29" y2="458.54"/><rect class="cls-1" x="272.77" y="-3.89" width="8.39" height="502.93" transform="translate(-88.35 165.26) rotate(-30.05)"/><line class="cls-1" x1="401.29" y1="23.21" x2="149.44" y2="458.54"/><rect class="cls-1" x="25.5" y="243.39" width="502.93" height="8.39" transform="translate(-77.63 356.64) rotate(-59.95)"/><rect class="cls-1" x="21.78" y="235.23" width="507.31" height="8.39"/><rect class="cls-2" x="-21.23" y="128.73" width="466.14" height="8.39" transform="translate(-39.66 116.4) rotate(-29.86)"/><rect class="cls-2" x="337.59" y="-99.21" width="8.39" height="466.14" transform="translate(53.94 356.93) rotate(-60.14)"/><rect class="cls-2" x="207.64" y="121.7" width="8.39" height="466.14" transform="translate(-202.91 355.17) rotate(-60.14)"/><rect class="cls-2" x="108.72" y="349.65" width="466.14" height="8.39" transform="translate(-132.39 210.41) rotate(-29.86)"/><rect class="cls-2" x="141.28" y="13.62" width="8.39" height="453.31"/><rect class="cls-2" x="400.25" y="13.62" width="8.39" height="453.31"/><circle cx="146.66" cy="17.64" r="17.64"/><circle cx="403.71" cy="17.64" r="17.64"/><circle cx="146.66" cy="462.25" r="17.64"/><circle cx="17.64" cy="238.55" r="17.64"/><circle cx="532.79" cy="238.55" r="17.64"/><circle cx="403.71" cy="462.25" r="17.64"/></svg>